<?xml version="1.0" encoding="UTF-8"?>
<svg id="Layer_2" data-name="Layer 2" xmlns="http://www.w3.org/2000/svg" viewBox="0 0 85.04 85.04">
  <defs>
    <style>
      .cls-1 {
        fill: none;
        stroke: #ed2327;
        stroke-miterlimit: 10;
      }
    </style>
  </defs>
  <path class="cls-1" d="M42.02,54.16c1-.56,8.34-4.85,9.3-12.88,1.12-9.32-7.33-15.59-9.3-17.05-8.89-6.59-19.36-4.5-22.9-3.79-4.15.83-15.73,3.14-17.8,10.99-2.18,8.24,7.75,16.45,9.85,18.19,6.64,5.49,11.47,6.34,16.45,7.15,7.05,1.14,6.83.8,21.28,1.18,7.95.21,11.96-.05,21.75.2,7.49.19,14.37.37,14.4,0,.09-1.23-80.87-6.07-83.65,4.35-.51,1.92,1.57,4.2,3.79,6.06"/>
</svg>