<?xml version="1.0" encoding="UTF-8"?>
<svg id="Layer_2" data-name="Layer 2" xmlns="http://www.w3.org/2000/svg" viewBox="0 0 85.04 85.04">
  <defs>
    <style>
      .cls-1 {
        fill: none;
        stroke: #ed2024;
        stroke-miterlimit: 10;
      }
    </style>
  </defs>
  <path class="cls-1" d="M46.78,57.05c11.17-1.95,16.03-3.21,16.03-12.82,0-13.22-9.62-19.23-22.44-19.23-13.64,0-16.03,8.44-16.03,19.23,0,12.82,9,20.65,22.44,22.44,9.06,1.21,19.26.07,19.23-3.21-.03-3.76-13.49-7.95-25.64-6.41-5.44.69-18.31.29-19.23,6.41-1.13,7.5,15.61,20.23,32.05,19.23,21.11-1.28,25.18-18.16,25.64-19.23,8.18-18.94,9.62-35.26-9.62-51.28C48.47-5.12,15.39,1.01,5.11,24.99c-9.62,22.44-3.64,40.59,12.82,57.7"/>
</svg>