<?xml version="1.0" encoding="UTF-8"?>
<svg id="Layer_2" data-name="Layer 2" xmlns="http://www.w3.org/2000/svg" viewBox="0 0 85.04 85.04">
  <defs>
    <style>
      .cls-1 {
        fill: none;
        stroke: #ed2327;
        stroke-miterlimit: 10;
      }
    </style>
  </defs>
  <path class="cls-1" d="M85.04,22.15c-9.75,0-21.93.09-31.68.09-9.15,0-18.3.06-27.45,0-8.34-.06-22.11,2.29-24.44-1.28-.2-.3,22.95-3.55,38.01,6.7,5.11,3.48,8.2,7.94,8.75,8.75,2.36,3.47,5.95,8.75,5.13,14.48-1.25,8.67-12.01,14.11-19.91,15.38-12.44,2-21.58-5.76-22.92-6.94-1.97-1.73-10.82-11.76-9.68-21.62.76-6.59,3.57-9.74,4.31-11.46"/>
</svg>