<?xml version="1.0" encoding="UTF-8"?>
<svg id="Layer_2" data-name="Layer 2" xmlns="http://www.w3.org/2000/svg" viewBox="0 0 85.04 85.04">
  <defs>
    <style>
      .cls-1 {
        fill: none;
        stroke: #ed2327;
        stroke-miterlimit: 10;
      }
    </style>
  </defs>
  <path class="cls-1" d="M63.37,61.86c1.23-.96,9.56-7.65,9.45-17.97-.12-11.04-9.79-17.47-13.43-19.89-11.97-7.96-24.88-4.97-26.85-4.48-3.81.95-17.3,4.31-19.89,14.92-2.06,8.44,3.97,16.59,8.45,20.39,6.41,5.43,13.63,6.94,23.36,7.8,1.93.17,17.42,2.31,17.5,1.72.13-.95-24.75-8.17-40.33-2.57-4.56,1.64-6.14,3.27-6.69,5.66-.78,3.38,2.02,6.66,2.82,7.5"/>
</svg>